<svg width="640" height="397" viewBox="0 0 640 397" fill="none" xmlns="http://www.w3.org/2000/svg">
<mask id="path-1-outside-1_15_2" maskUnits="userSpaceOnUse" x="-3" y="-3" width="649" height="403" fill="black">
<rect fill="white" x="-3" y="-3" width="649" height="403"/>
<path d="M0.0749326 397V0.834328H253.869V60.9943H71.8413V168.547H236.459V228.707H71.8413V397H0.0749326Z"/>
<path d="M319.251 397V0.834328H391.018V182.862H395.854L550.412 0.834328H638.041L484.836 178.606L639.395 397H553.121L434.929 227.159L391.018 279.001V397H319.251Z"/>
</mask>
<path d="M0.0749326 397V0.834328H253.869V60.9943H71.8413V168.547H236.459V228.707H71.8413V397H0.0749326Z" fill="#E15344"/>
<path d="M319.251 397V0.834328H391.018V182.862H395.854L550.412 0.834328H638.041L484.836 178.606L639.395 397H553.121L434.929 227.159L391.018 279.001V397H319.251Z" fill="white"/>
<path d="M0.0749326 397H-2.92507V400H0.0749326V397ZM0.0749326 0.834328V-2.16567H-2.92507V0.834328H0.0749326ZM253.869 0.834328H256.869V-2.16567H253.869V0.834328ZM253.869 60.9943V63.9943H256.869V60.9943H253.869ZM71.8413 60.9943V57.9943H68.8413V60.9943H71.8413ZM71.8413 168.547H68.8413V171.547H71.8413V168.547ZM236.459 168.547H239.459V165.547H236.459V168.547ZM236.459 228.707V231.707H239.459V228.707H236.459ZM71.8413 228.707V225.707H68.8413V228.707H71.8413ZM71.8413 397V400H74.8413V397H71.8413ZM3.07493 397V0.834328H-2.92507V397H3.07493ZM0.0749326 3.83433H253.869V-2.16567H0.0749326V3.83433ZM250.869 0.834328V60.9943H256.869V0.834328H250.869ZM253.869 57.9943H71.8413V63.9943H253.869V57.9943ZM68.8413 60.9943V168.547H74.8413V60.9943H68.8413ZM71.8413 171.547H236.459V165.547H71.8413V171.547ZM233.459 168.547V228.707H239.459V168.547H233.459ZM236.459 225.707H71.8413V231.707H236.459V225.707ZM68.8413 228.707V397H74.8413V228.707H68.8413ZM71.8413 394H0.0749326V400H71.8413V394ZM319.251 397H316.251V400H319.251V397ZM319.251 0.834328V-2.16567H316.251V0.834328H319.251ZM391.018 0.834328H394.018V-2.16567H391.018V0.834328ZM391.018 182.862H388.018V185.862H391.018V182.862ZM395.854 182.862V185.862H397.242L398.141 184.803L395.854 182.862ZM550.412 0.834328V-2.16567H549.024L548.126 -1.10742L550.412 0.834328ZM638.041 0.834328L640.313 2.7928L644.587 -2.16567H638.041V0.834328ZM484.836 178.606L482.564 176.647L481.032 178.424L482.387 180.339L484.836 178.606ZM639.395 397V400H645.193L641.844 395.267L639.395 397ZM553.121 397L550.658 398.714L551.553 400H553.121V397ZM434.929 227.159L437.391 225.446L435.162 222.242L432.639 225.22L434.929 227.159ZM391.018 279.001L388.729 277.062L388.018 277.902V279.001H391.018ZM391.018 397V400H394.018V397H391.018ZM322.251 397V0.834328H316.251V397H322.251ZM319.251 3.83433H391.018V-2.16567H319.251V3.83433ZM388.018 0.834328V182.862H394.018V0.834328H388.018ZM391.018 185.862H395.854V179.862H391.018V185.862ZM398.141 184.803L552.699 2.77607L548.126 -1.10742L393.567 180.92L398.141 184.803ZM550.412 3.83433H638.041V-2.16567H550.412V3.83433ZM635.768 -1.12415L482.564 176.647L487.109 180.564L640.313 2.7928L635.768 -1.12415ZM482.387 180.339L636.946 398.733L641.844 395.267L487.285 176.873L482.387 180.339ZM639.395 394H553.121V400H639.395V394ZM555.583 395.286L437.391 225.446L432.466 228.873L550.658 398.714L555.583 395.286ZM432.639 225.22L388.729 277.062L393.307 280.94L437.218 229.098L432.639 225.22ZM388.018 279.001V397H394.018V279.001H388.018ZM391.018 394H319.251V400H391.018V394Z" fill="black" mask="url(#path-1-outside-1_15_2)"/>
</svg>
