<svg width="1000" height="1000" viewBox="0 0 1000 1000" fill="none" xmlns="http://www.w3.org/2000/svg">
<g clip-path="url(#clip0_2_43)">
<rect width="1000" height="1000" fill="#10A37F"/>
<path d="M1113.74 649.935C1120.44 629.787 1123.86 608.69 1123.86 587.456C1123.86 552.318 1114.5 517.815 1096.75 487.493C1061.07 425.393 994.891 387.053 923.268 387.053C909.157 387.053 895.086 388.543 881.288 391.499C862.73 370.59 839.951 353.852 814.451 342.39C788.952 330.928 761.313 325.001 733.356 325H732.101L731.629 325.003C644.88 325.003 567.948 380.98 541.28 463.502C513.675 469.156 487.597 480.642 464.791 497.19C441.985 513.739 422.977 534.968 409.039 559.457C391.339 589.962 382.011 624.601 382 659.869C382.007 709.435 400.406 757.234 433.633 794.012C426.926 814.16 423.505 835.256 423.502 856.491C423.506 891.629 432.865 926.132 450.619 956.454C471.732 993.214 503.974 1022.32 542.696 1039.57C581.417 1056.82 624.618 1061.33 666.067 1052.45C684.628 1073.35 707.41 1090.09 732.91 1101.55C758.411 1113.02 786.052 1118.95 814.011 1118.95H815.266L815.776 1118.94C902.573 1118.94 979.48 1062.96 1006.15 980.367C1033.75 974.711 1059.83 963.225 1082.64 946.676C1105.44 930.127 1124.45 908.898 1138.39 884.409C1156.07 853.931 1165.38 819.321 1165.38 784.086C1165.37 734.522 1146.97 686.723 1113.74 649.946L1113.74 649.935ZM815.316 1067.04H815.111C780.38 1067.03 746.751 1054.85 720.074 1032.61C721.658 1031.75 723.223 1030.87 724.769 1029.95L882.852 938.634C886.797 936.389 890.077 933.139 892.359 929.215C894.641 925.291 895.844 920.833 895.846 916.293V693.275L962.664 731.856C963.014 732.031 963.316 732.29 963.543 732.61C963.77 732.929 963.914 733.3 963.963 733.689V918.253C963.872 1000.31 897.379 1066.88 815.316 1067.04ZM495.645 930.51C482.587 907.932 475.707 882.313 475.699 856.231C475.699 847.724 476.442 839.195 477.888 830.813C479.064 831.517 481.115 832.77 482.587 833.616L640.669 924.928C644.61 927.229 649.092 928.441 653.656 928.44C658.22 928.439 662.701 927.225 666.641 924.922L859.643 813.481V890.646L859.646 890.779C859.646 891.15 859.56 891.517 859.394 891.849C859.228 892.182 858.987 892.471 858.69 892.694L698.883 984.963C676.271 997.976 650.64 1004.83 624.551 1004.84C598.434 1004.83 572.777 997.963 550.152 984.916C527.527 971.87 508.73 953.104 495.645 930.502V930.51ZM454.056 585.402C471.419 555.244 498.834 532.153 531.504 520.17C531.504 521.531 531.426 523.942 531.426 525.616V708.243L531.423 708.393C531.424 712.928 532.625 717.381 534.904 721.302C537.183 725.222 540.458 728.47 544.398 730.714L737.4 842.139L670.585 880.72C670.256 880.937 669.878 881.07 669.485 881.105C669.091 881.141 668.695 881.079 668.332 880.925L508.509 788.579C485.915 775.491 467.159 756.694 454.119 734.073C441.079 711.451 434.213 685.8 434.21 659.689C434.22 633.619 441.066 608.008 454.065 585.41L454.056 585.402ZM1003.03 713.152L810.028 601.714L876.845 563.147C877.175 562.929 877.553 562.797 877.946 562.761C878.339 562.725 878.735 562.787 879.099 562.942L1038.92 655.21C1061.53 668.278 1080.31 687.065 1093.36 709.684C1106.42 732.303 1113.3 757.958 1113.3 784.075C1113.3 846.41 1074.4 902.188 1015.92 923.716V735.629C1015.93 735.56 1015.93 735.488 1015.93 735.418C1015.93 730.9 1014.73 726.463 1012.47 722.553C1010.2 718.644 1006.95 715.401 1003.03 713.152ZM1069.53 613.059C1067.98 612.107 1066.41 611.174 1064.84 610.259L906.756 518.944C902.814 516.648 898.334 515.437 893.773 515.435C889.211 515.437 884.731 516.648 880.789 518.944L687.785 630.385V553.221L687.782 553.088C687.782 552.334 688.139 551.624 688.741 551.172L848.548 458.982C871.152 445.95 896.785 439.09 922.877 439.088C1005.04 439.088 1071.68 505.723 1071.68 587.891C1071.68 596.323 1070.96 604.739 1069.53 613.051V613.059ZM651.457 750.591L584.626 712.01C584.275 711.835 583.973 711.577 583.746 711.257C583.519 710.937 583.375 710.567 583.326 710.178V525.611C583.362 443.487 649.996 376.908 732.128 376.908C766.914 376.915 800.599 389.101 827.338 411.351C826.135 412.008 824.036 413.166 822.642 414.012L664.56 505.324C660.615 507.568 657.335 510.816 655.053 514.739C652.772 518.661 651.569 523.118 651.568 527.656V527.803L651.457 750.591ZM687.754 672.334L773.714 622.685L859.674 672.301V771.566L773.714 821.184L687.754 771.566V672.334Z" fill="white"/>
</g>
<defs>
<clipPath id="clip0_2_43">
<rect width="1000" height="1000" fill="white"/>
</clipPath>
</defs>
</svg>
